# xmcd
#
# Track frame offsets:
#	150
#	13408
#	25323
#	37518
#	52925
#	63805
#	78400
#	92020
#	119103
#	132508
#	145305
#	161903
#
# Disc length: 2311 seconds
#
# Revision: 4
# Processed by: cddbd v1.5.2PL0 Copyright (c) Steve Scherf et al.
# Submitted via: EZCDAudioConverter 3.1.5.1
#
DISCID=a009050c
DTITLE=Γιάννης Πουλόπουλος - ΟΙ Μεγάλες Επιτυχίες CD2
DYEAR=1993
DGENRE=Greek
TTITLE0=ΓΥΦΤΙΣΣΑ ΜΕΡΑ
TTITLE1=	ΠΟΙΑ ΝΥΧΤΑ Σ ΕΚΛΕΨΕ
TTITLE2=	ΔΩΔΕΚΑ Η ΩΡΑ ΘΑ ΡΘΩ ΒΡΕ ΜΑΡΙΩ
TTITLE3=	ΤΙ ΟΜΟΡΦΗ ΠΟΥ ΕΙΣΑΙ ΟΤΑΝ ΚΛΑΙΣ
TTITLE4=	ΗΤΑΝ ΤΟ ΠΟΤΑΜΙ ΜΑΚΡΥ
TTITLE5=	ΧΡΥΣΟΠΡΑΣΙΝΟ ΦΥΛΛΟ	
TTITLE6=Η ΕΛΕΝΗ ΤΟΥ ΜΑΗ
TTITLE7=	ΑΙΝΤΕ ΚΑΙ ΑΝΤΕ
TTITLE8=	ΠΑΙΔΙ ΜΟΥ ΩΡΑ ΣΟΥ ΚΑΛΗ
TTITLE9=	ΜΕΣΑ ΣΤΟ ΠΑΛΙΟ ΣΟΥ ΣΠΙΤΙ
TTITLE10=ΣΤΡΩΣΕ ΤΟ ΣΤΡΩΜΑ ΣΟΥ ΓΙΑ ΔΥΟ
TTITLE11=	ΗΡΘΕΣ ΕΨΕΣ
EXTD=
EXTT0=
EXTT1=
EXTT2=
EXTT3=
EXTT4=
EXTT5=
EXTT6=
EXTT7=
EXTT8=
EXTT9=
EXTT10=
EXTT11=
PLAYORDER=
